<svg xmlns="http://www.w3.org/2000/svg" width="156" height="40" viewBox="0 0 156 40" fill="none">
  <g clip-path="url(#clip0_2_1428)">
    <mask id="mask0_2_1428" style="mask-type:luminance" maskUnits="userSpaceOnUse" x="-32" y="-32" width="220" height="104">
      <path d="M187.606 -31.7914H-31.7914V71.7942H187.606V-31.7914Z" fill="white"/>
    </mask>
    <g mask="url(#mask0_2_1428)">
      <path d="M111.714 35.5798H102.256C102.256 35.5798 97.3912 28.3755 94.8996 27.1615C94.4949 29.9521 94.4949 32.7864 94.8996 35.577C92.1405 36.3717 87.0829 35.577 87.0829 35.577C88.49 16.4807 87.0829 4.59957 87.0829 4.59957C87.0829 4.48576 87.107 4.37323 87.1535 4.26936C87.2001 4.1655 87.268 4.07263 87.3529 3.99683C87.4378 3.92104 87.5378 3.86403 87.6463 3.82953C87.7547 3.79504 87.8693 3.78383 87.9824 3.79665L93.7601 4.45886C94.0738 4.49476 94.3632 4.64481 94.5734 4.8804C94.7835 5.11599 94.8997 5.42066 94.8996 5.73636V21.0581C96.5883 20.2056 99.9545 16.2047 100.865 14.0553C101.242 13.1802 101.922 12.4705 102.78 12.0568C103.638 11.6432 104.617 11.5533 105.536 11.8038C106.178 11.978 106.768 12.3052 107.256 12.7574C107.744 13.2096 108.115 13.7733 108.337 14.4002C108.556 14.9969 108.626 15.6383 108.539 16.268C108.452 16.8978 108.212 17.4967 107.84 18.012C106.632 19.6868 102.954 22.7523 100.355 24.6341C100.424 24.6975 109.159 32.1308 111.229 34.9258L111.714 35.5798ZM62.1536 13.8401C60.1626 12.8527 57.9704 12.339 55.7481 12.339C53.5258 12.339 51.3335 12.8527 49.3426 13.8401C47.4852 14.7968 45.93 16.2507 44.8507 18.0396C43.7877 19.8891 43.2283 21.9849 43.2283 24.1181C43.2283 26.2513 43.7877 28.3471 44.8507 30.1966C45.931 31.9857 47.4871 33.4396 49.3454 34.3961C51.3364 35.3816 53.5279 35.8943 55.7495 35.8943C57.971 35.8943 60.1626 35.3816 62.1536 34.3961C64.0016 33.4333 65.549 31.9804 66.6262 30.1966C67.6876 28.3466 68.246 26.2509 68.246 24.1181C68.246 21.9853 67.6876 19.8896 66.6262 18.0396C65.5489 16.2559 64.0016 14.803 62.1536 13.8401ZM60.0373 24.1181C60.0373 26.4689 59.6151 28.3507 58.7818 29.711C57.9789 31.0161 56.9883 31.6424 55.7467 31.6424C54.5051 31.6424 53.5118 31.005 52.6978 29.6944C51.8562 28.3341 51.4258 26.4551 51.4258 24.1098C51.4258 21.7645 51.8535 19.88 52.6978 18.528C53.5421 17.176 54.4913 16.5772 55.7467 16.5772C57.0021 16.5772 57.9679 17.2118 58.7818 18.5087C59.6151 19.8855 60.0373 21.7645 60.0373 24.1181ZM84.4451 12.9075C83.5014 12.2646 82.3095 12.1653 80.9906 12.6316C79.3764 13.2055 77.8368 14.5106 76.9263 15.6005C76.9263 15.6005 77.2243 12.5874 76.5869 11.9501C75.9495 11.3127 69.3854 13.6966 69.3854 13.6966C70.0559 17.3801 70.5663 24.245 69.3854 35.5798C69.3854 35.5798 72.9475 36.4931 77.6437 35.5798C76.6917 30.5746 76.8297 21.3175 77.5968 19.6592C77.7706 19.2867 78.6673 19.6399 79.5282 19.9076C80.527 20.2166 81.7797 20.5974 83.0682 20.4318C83.8611 20.3467 84.608 20.0171 85.2052 19.4886C85.8024 18.9601 86.2204 18.2589 86.4013 17.4822C86.8097 15.7577 86.0619 14.0112 84.4451 12.9075ZM43.5704 5.6867C42.4253 3.55108 35.6984 3.15928 34.8707 8.2086C34.3713 11.2685 40.3201 21.8059 35.1052 27.6719C34.3161 25.6301 29.1343 11.641 27.4816 7.50776C26.5765 5.24246 24.4685 4.01462 22.0515 4.2464C19.7006 4.46989 17.9127 5.90191 17.5926 8.21135C17.4714 9.35897 17.5985 10.5192 17.9651 11.6134C18.1472 12.1873 18.39 12.8965 18.6521 13.6332C20.0049 17.3362 20.1765 21.3675 19.1433 25.1721C18.7432 26.6014 18.2879 27.6719 17.8271 27.6719C17.8271 27.6719 12.6261 14.0829 10.1207 7.74505C8.9315 4.73753 5.98193 3.45727 3.02408 4.61889C0.422158 5.63979 -0.698074 8.63075 0.449749 11.5527C3.17031 18.4783 5.02725 22.6557 7.62365 29.6282C8.82114 32.8509 9.20742 35.9743 14.6044 35.9743C19.0384 35.9743 22.2584 26.3392 22.882 24.3526C24.005 27.1698 25.1059 29.9979 26.2537 32.804C27.1642 35.0362 28.897 35.9799 31.7224 35.9799C38.7722 35.9854 45.6646 9.59647 43.5704 5.6867Z" fill="white"/>
      <path d="M147.338 19.7889C147.388 20.3297 147.413 20.9064 147.413 21.5189C147.42 22.3389 147.341 23.1573 147.178 23.9608C147.046 24.6445 146.763 25.2901 146.35 25.8509C145.926 26.3945 145.367 26.817 144.728 27.0759C143.901 27.3942 143.019 27.5433 142.134 27.5147H141.533V15.4377H142.109C142.781 15.4277 143.451 15.4934 144.107 15.6336C144.612 15.7431 145.094 15.9352 145.536 16.202C145.914 16.4335 146.241 16.7396 146.497 17.1015C146.749 17.4711 146.943 17.8779 147.07 18.3072C147.207 18.7913 147.297 19.2875 147.338 19.7889ZM146.646 40C131.829 40 110.307 30.0283 110.307 24.4354C110.307 18.8425 126.997 0 146.742 0C158.711 0 158.99 40 146.646 40ZM135.217 27.5836H127.444V22.5067H134.124V19.8827H127.444V15.4404H135.12V12.7502H123.17V30.2049H135.217V27.5836ZM151.143 25.2935C151.531 24.0918 151.718 22.834 151.695 21.5714C151.695 18.6466 150.938 16.4393 149.424 14.9493C147.91 13.4593 145.645 12.7235 142.628 12.7419H137.253V30.1966H142.603C143.965 30.2229 145.322 30.0367 146.626 29.6448C147.687 29.3188 148.657 28.7523 149.463 27.9892C150.23 27.2374 150.806 26.3131 151.143 25.2935Z" fill="white"/>
    </g>
  </g>
  <defs>
    <clipPath id="clip0_2_1428">
      <rect width="155.812" height="40" fill="white"/>
    </clipPath>
  </defs>
</svg>
